<svg xmlns="http://www.w3.org/2000/svg" width="28" height="28" viewBox="0 0 28 28">
  <g id="Group_49616" data-name="Group 49616" transform="translate(21513 1267)">
    <circle id="Ellipse_612" data-name="Ellipse 612" cx="14" cy="14" r="14" transform="translate(-21513 -1267)"/>
    <path id="Path_94316" data-name="Path 94316" d="M484.581,264.078c0-3.954-3.964-7.17-8.836-7.17s-8.836,3.217-8.836,7.17c0,3.545,3.143,6.513,7.389,7.074.288.062.679.19.778.436a1.818,1.818,0,0,1,.029.8s-.1.624-.126.756c-.038.223-.178.874.765.476a28.52,28.52,0,0,0,6.942-5.13h0a6.379,6.379,0,0,0,1.894-4.412" transform="translate(-21974.699 -1517.351)" fill="#fff"/>
    <g id="Group_49615" data-name="Group 49615" transform="translate(2230 8026)">
      <path id="Path_94317" data-name="Path 94317" d="M498.6,282.916h-.62a.172.172,0,0,0-.172.172v3.85a.172.172,0,0,0,.172.172h.62a.172.172,0,0,0,.172-.172v-3.85a.172.172,0,0,0-.172-.172" transform="translate(-24229.348 -9564.099)"/>
      <path id="Path_94318" data-name="Path 94318" d="M509.045,282.916h-.62a.172.172,0,0,0-.172.172v2.287l-1.764-2.383-.014-.017h0l-.01-.011,0,0-.009-.008,0,0-.009-.006-.005,0-.009-.005-.005,0-.01,0-.005,0-.01,0-.006,0-.01,0h-.651a.172.172,0,0,0-.172.172v3.85a.172.172,0,0,0,.172.172h.62a.172.172,0,0,0,.172-.172v-2.287l1.766,2.386a.168.168,0,0,0,.044.042h0l.01.007,0,0,.008,0,.008,0,.005,0,.012,0h0a.164.164,0,0,0,.044.006h.62a.172.172,0,0,0,.172-.172v-3.85a.172.172,0,0,0-.172-.172" transform="translate(-24235.527 -9564.099)"/>
      <path id="Path_94319" data-name="Path 94319" d="M483.89,286.145h-1.684v-3.058a.172.172,0,0,0-.172-.172h-.62a.172.172,0,0,0-.172.172v3.85h0a.171.171,0,0,0,.048.119l0,0,0,0a.17.17,0,0,0,.119.048h2.476a.172.172,0,0,0,.172-.172v-.62a.172.172,0,0,0-.172-.172" transform="translate(-24216.133 -9564.099)"/>
      <path id="Path_94320" data-name="Path 94320" d="M529.3,283.88a.172.172,0,0,0,.172-.172v-.62a.172.172,0,0,0-.172-.172H526.82a.172.172,0,0,0-.119.049l0,0,0,0a.171.171,0,0,0-.048.119h0v3.849h0a.171.171,0,0,0,.048.119l0,0,0,0a.17.17,0,0,0,.119.048H529.3a.172.172,0,0,0,.172-.172v-.62a.172.172,0,0,0-.172-.172h-1.684v-.651H529.3a.172.172,0,0,0,.172-.172v-.62a.172.172,0,0,0-.172-.172h-1.684v-.651Z" transform="translate(-24252.355 -9564.099)"/>
    </g>
  </g>
</svg>
