<svg width="344" height="35" viewBox="0 0 344 35" fill="none" xmlns="http://www.w3.org/2000/svg">
<path d="M23.928 23.528C22.872 23.864 21.912 24.488 21.408 25.256C20.064 24.56 18.48 22.28 18.096 21.656C17.232 20.216 16.512 17.936 16.344 17.384C16.368 18.056 16.392 21.008 16.392 21.608C16.416 22.4 16.584 25.904 16.584 26.6C16.584 27.608 15.888 27.992 15.096 27.992C14.304 27.992 14.304 27.296 14.304 27.056C14.304 25.664 14.52 19.52 14.544 18.272C13.632 19.784 12.744 21.104 11.136 22.544C10.176 23.408 8.52 24.68 7.608 25.136L7.488 25.04C10.584 22.112 11.88 19.736 13.608 16.544H12.432C10.968 16.544 10.44 16.592 9.84 16.688L9.456 15.824C10.92 15.944 12.6 15.968 12.864 15.968H14.592C14.568 14.96 14.544 13.112 14.52 11.984H11.568C11.4 12.248 10.32 14.144 8.76 15.488L8.616 15.368C9.384 13.64 10.92 10.088 10.92 8.48C10.92 8.432 10.872 7.736 10.872 7.592L13.32 8.576C13.488 8.648 13.632 8.744 13.632 8.936C13.632 9.2 13.44 9.272 12.888 9.488C12.624 10.016 12.48 10.352 11.904 11.408H14.52C14.472 8.624 14.472 8.312 14.424 7.736C14.376 7.304 14.232 6.8 13.968 5.96L16.824 6.584C17.088 6.632 17.256 6.776 17.256 6.92C17.256 7.064 16.608 7.52 16.416 7.664C16.368 8.24 16.32 9.152 16.32 11.408H18.288L19.248 10.256C19.464 9.992 19.512 9.968 19.608 9.968C19.728 9.968 19.776 9.992 20.064 10.208L21.528 11.36C21.672 11.456 21.768 11.576 21.768 11.72C21.768 11.936 21.552 11.984 21.384 11.984H16.32L16.344 15.968H19.344L20.52 14.744C20.784 14.48 20.784 14.432 20.88 14.432C21.024 14.432 21.072 14.48 21.336 14.696L22.848 15.92C22.968 16.016 23.088 16.136 23.088 16.28C23.088 16.496 22.896 16.544 22.728 16.544H16.44C17.472 19.16 20.808 22.808 23.928 23.36V23.528ZM9.504 11.48C9.504 11.696 9.312 11.744 9.144 11.744H6.672V14.336C7.032 14.456 9.384 15.704 9.384 17.264C9.384 18.104 8.736 18.416 8.328 18.416C7.344 18.416 7.272 17.528 7.176 16.28C7.152 15.872 7.008 15.152 6.672 14.72V18.032C6.672 20.456 6.768 24.296 6.768 26.72C6.768 27.2 6.744 27.368 6.576 27.512C6.096 27.968 5.616 27.992 5.424 27.992C4.56 27.992 4.56 27.584 4.56 27.272C4.56 27.224 4.848 20.84 4.896 19.616C4.944 18.824 4.944 18.584 4.968 16.52C3.96 18.824 2.664 21.008 0.696 22.568L0.504 22.448C1.92 20.432 4.272 15.08 4.824 11.744C3.312 11.744 2.712 11.744 1.872 11.888L1.488 11.024C2.904 11.144 4.512 11.168 4.992 11.168C4.944 8.168 4.944 7.832 4.8 5.936L7.368 6.632C7.536 6.68 7.656 6.704 7.656 6.848C7.656 7.064 7.488 7.184 6.816 7.592C6.696 9.488 6.672 10.544 6.672 11.168H7.104L7.848 10.136C7.968 9.968 8.064 9.848 8.208 9.848C8.376 9.848 8.544 9.992 8.664 10.16L9.288 11.072C9.408 11.264 9.504 11.36 9.504 11.48ZM42.912 9.176C42.912 9.512 42.696 10.304 41.832 10.304C41.304 10.304 41.04 10.016 40.752 9.344C40.152 7.88 39.96 7.544 39.528 7.04L39.648 6.776C40.296 6.872 41.184 7.016 41.832 7.472C42.6 7.976 42.912 8.672 42.912 9.176ZM46.992 11.744C46.992 11.96 46.8 12.008 46.632 12.008H38.424C38.976 17.552 40.416 20.672 42.072 23C42.384 23.432 43.392 24.68 43.968 24.68C44.232 24.68 44.232 24.68 44.856 23.432C45.312 22.52 45.624 21.752 46.032 20.72L46.152 20.744C46.128 21.224 45.936 23.696 45.936 24.968C45.936 25.28 45.936 25.52 46.248 25.904C46.608 26.384 46.704 26.528 46.704 26.84C46.704 27.32 46.296 27.776 45.552 27.776C44.448 27.776 42.312 26.576 41.064 25.04C38.376 21.656 37.296 17.792 36.48 12.008H28.248C26.76 12.008 26.256 12.056 25.656 12.176L25.248 11.288C26.712 11.408 28.416 11.432 28.68 11.432H36.408C36.384 11.264 36.072 8.192 36.024 7.736C35.88 6.56 35.712 6.2 35.496 5.768L38.664 6.56C39.072 6.656 39.144 6.8 39.144 6.92C39.144 7.184 38.664 7.424 38.232 7.64C38.232 8.456 38.232 9.536 38.376 11.432H43.056L44.256 9.992C44.472 9.728 44.52 9.68 44.64 9.68C44.736 9.68 44.832 9.728 45.096 9.968L46.752 11.384C46.896 11.504 46.992 11.6 46.992 11.744ZM38.16 20.888C35.568 22.808 33 24.128 27 26.456C26.928 26.912 26.712 27.056 26.544 27.056C26.28 27.056 26.112 26.792 26.016 26.528L24.984 23.912C25.272 23.96 25.536 24.008 25.92 24.008C27.048 24.008 29.16 23.48 30.384 23.168V16.592H28.704C27.024 16.592 26.568 16.688 26.112 16.76L25.704 15.872C26.856 15.992 27.984 16.016 29.136 16.016H32.832L33.792 14.72C33.912 14.576 34.032 14.408 34.176 14.408C34.296 14.408 34.392 14.48 34.608 14.672L36.096 15.992C36.216 16.088 36.336 16.184 36.336 16.352C36.336 16.592 36.12 16.592 35.976 16.592H32.328V22.64C33.528 22.304 36.384 21.464 38.088 20.72L38.16 20.888ZM71.208 14.096C70.128 14.552 69.312 15.248 68.808 16.28C66.672 15.272 62.952 13.184 60.072 7.664C58.392 10.808 53.208 15.44 49.2 17.072L49.08 16.928C53.976 13.352 57.048 8.336 57.528 7.544C58.152 6.512 58.248 6.176 58.368 5.6L60.96 6.488C61.272 6.584 61.344 6.776 61.344 6.872C61.344 7.16 60.768 7.304 60.48 7.4C62.016 9.776 65.808 13.088 71.208 13.952V14.096ZM64.128 15.008C64.128 15.224 63.912 15.248 63.768 15.248H57.36C55.896 15.248 55.368 15.32 54.768 15.416L54.384 14.528C55.824 14.672 57.528 14.672 57.792 14.672H60.384L61.56 13.328C61.8 13.04 61.824 13.016 61.944 13.016C62.088 13.016 62.304 13.208 62.376 13.28L63.888 14.624C64.032 14.768 64.128 14.84 64.128 15.008ZM69.408 19.184C69.408 19.424 69.168 19.424 69.048 19.424H59.568C58.464 21.32 56.376 23.72 55.608 24.56C61.512 24.104 62.16 24.056 64.584 23.72C63.72 22.352 62.592 21.104 62.04 20.504L62.16 20.36C63.552 20.936 68.304 23.336 68.304 26.288C68.304 26.672 68.04 27.632 67.104 27.632C66.336 27.632 65.856 27.008 65.544 26C65.304 25.232 65.208 24.92 64.872 24.248C62.328 25.016 54.408 26.84 52.968 27.08C52.872 27.32 52.8 27.584 52.56 27.584C52.296 27.584 52.152 27.224 52.104 27.08L51.048 24.44C51.792 24.584 52.416 24.704 53.4 24.704C53.664 24.704 54.552 24.632 54.936 24.608C55.752 22.832 56.232 21.512 56.736 19.424H53.304C51.624 19.424 51.168 19.52 50.712 19.592L50.304 18.704C51.456 18.824 52.584 18.848 53.736 18.848H65.136L66.456 17.384C66.696 17.096 66.744 17.072 66.864 17.072C66.96 17.072 67.008 17.096 67.296 17.336L69.168 18.824C69.24 18.896 69.408 19.016 69.408 19.184ZM86.76 14.768H85.272C83.808 14.768 83.28 14.84 82.68 14.936L82.296 14.048C83.424 14.144 84.576 14.192 85.704 14.192H86.76C86.736 13.688 86.712 11.408 86.712 10.952C86.712 8 86.688 7.448 85.896 5.888L88.776 6.584C89.184 6.68 89.448 6.872 89.448 7.088C89.448 7.376 89.064 7.616 88.776 7.784C88.728 8.408 88.728 8.984 88.728 14.192H90.72L91.776 12.872C91.992 12.608 92.016 12.56 92.16 12.56C92.304 12.56 92.544 12.776 92.592 12.824L94.104 14.144C94.248 14.288 94.344 14.36 94.344 14.528C94.344 14.744 94.128 14.768 93.984 14.768H88.728C88.728 18.344 88.728 22.16 88.776 25.448H90.888L92.208 24.104C92.448 23.84 92.496 23.792 92.592 23.792C92.76 23.792 92.928 23.96 93.048 24.08L94.488 25.4C94.608 25.52 94.704 25.64 94.704 25.784C94.704 26 94.512 26.024 94.344 26.024H84C82.536 26.024 82.008 26.096 81.408 26.192L81.024 25.304C82.152 25.424 83.28 25.448 84.432 25.448H86.784C86.808 20.984 86.808 20.096 86.76 14.768ZM72.48 20.384L72.384 20.24C75 18.08 78.672 13.64 79.632 11.36H76.056C74.592 11.36 74.064 11.408 73.464 11.528L73.08 10.64C74.208 10.736 75.336 10.784 76.488 10.784H77.304C77.304 8.84 77.184 7.472 76.584 5.888L79.56 6.776C79.68 6.8 79.968 6.896 79.968 7.112C79.968 7.328 79.656 7.544 79.224 7.832C79.2 8.168 79.176 8.6 79.176 9.008C79.176 9.248 79.2 10.496 79.2 10.784H79.704L80.352 10.088C80.448 9.968 80.592 9.872 80.736 9.872C80.88 9.872 81.048 9.992 81.144 10.088L82.512 11.336C82.56 11.384 82.632 11.456 82.632 11.6C82.632 11.96 82.128 12.056 81.552 12.152C80.616 13.472 79.968 14.288 79.272 15.08C80.568 15.488 82.944 16.832 82.944 18.368C82.944 18.752 82.656 19.424 81.936 19.424C81.216 19.424 80.976 18.872 80.616 18.032C80.4 17.528 79.728 16.232 79.104 15.44C79.08 16.376 79.056 21.272 79.056 21.344C79.056 22.112 79.2 25.976 79.2 26.288C79.2 27.344 78.096 27.536 77.808 27.536C77.688 27.536 76.944 27.488 76.944 26.696C76.944 26.624 77.088 24.464 77.088 24.272C77.136 23.072 77.136 22.496 77.184 17.192C75 19.064 73.248 20 72.48 20.384ZM125.472 8.336H116.976C117 9.704 117.048 16.376 117.072 17.888H122.904L124.104 16.448C124.32 16.184 124.368 16.136 124.488 16.136C124.608 16.136 124.68 16.208 124.92 16.4L126.72 17.84C126.84 17.936 126.96 18.056 126.96 18.2C126.96 18.464 126.72 18.464 126.6 18.464H117.072C117.096 19.616 117.216 25.256 117.216 26.528C117.216 27.872 115.944 27.872 115.8 27.872C115.032 27.872 114.816 27.512 114.816 26.888C114.816 26.72 114.84 26.432 114.864 25.976C114.888 25.352 114.912 22.76 114.912 21.944C114.912 20.792 114.936 19.616 114.96 18.464H108.096C106.44 18.464 105.96 18.56 105.504 18.632L105.12 17.744C106.2 17.84 107.424 17.888 108.528 17.888H114.96C114.96 17.552 114.984 17.072 114.984 16.76C114.984 15.92 114.936 10.112 114.912 8.336H109.248C107.568 8.336 107.112 8.408 106.656 8.504L106.248 7.616C107.352 7.712 108.576 7.76 109.68 7.76H121.752L122.928 6.512C123.168 6.272 123.24 6.152 123.36 6.152C123.48 6.152 123.576 6.224 123.816 6.416L125.592 7.712C125.688 7.784 125.832 7.904 125.832 8.072C125.832 8.312 125.616 8.336 125.472 8.336ZM107.256 10.064L107.424 9.92C110.016 10.952 111.984 12.992 111.984 14.768C111.984 15.68 111.384 16.136 110.832 16.136C109.848 16.136 109.536 14.936 109.368 14.192C109.152 13.304 108.888 12.128 107.256 10.064ZM121.8 9.296L124.272 10.976C124.416 11.072 124.464 11.144 124.464 11.264C124.464 11.696 123.816 11.744 123.528 11.744C122.232 13.544 119.76 16.064 118.368 16.904L118.248 16.784C118.776 16.016 120.576 13.352 121.8 9.296ZM150 11.048C150 11.432 149.856 11.456 148.44 11.456C147.96 11.648 147.864 11.696 146.904 12.224C146.184 12.608 145.776 12.752 145.368 12.896L145.296 12.8C145.824 11.504 146.136 10.76 146.352 9.992H132.96C133.152 12.32 131.664 13.952 130.416 13.952C129.648 13.952 129.288 13.328 129.288 12.752C129.288 12.056 129.768 11.696 130.176 11.384C130.752 10.952 132.336 9.776 132.48 8.144H132.624C132.84 8.912 132.84 9.008 132.912 9.416H138.84C138.816 7.592 138.744 7.016 138.192 5.72L141.384 6.512C141.504 6.536 141.696 6.608 141.696 6.824C141.696 7.04 141.576 7.136 140.856 7.52C140.832 8.384 140.832 8.48 140.808 9.416H146.424L147.432 8.552C147.528 8.48 147.624 8.408 147.744 8.408C147.912 8.408 148.032 8.528 148.128 8.648L149.904 10.688C149.976 10.76 150 10.928 150 11.048ZM151.104 16.568C151.104 16.784 150.888 16.808 150.72 16.808H144.432L145.824 17.648C145.92 17.72 146.064 17.816 146.064 17.936C146.064 18.2 145.56 18.32 144.936 18.464C144.552 19.448 143.952 20.912 142.464 22.736C145.08 23.6 148.44 25.304 148.44 26.84C148.44 27.152 148.2 28.04 147.36 28.04C146.856 28.04 146.448 27.704 146.064 27.368C144.264 25.832 143.016 24.896 141.336 23.936C138.336 26.768 134.208 27.944 130.08 27.776V27.584C135.96 26.528 138.984 23.768 139.656 23.144C138.624 22.688 137.448 22.328 135.816 21.944C135.24 23.288 135.024 23.792 134.04 23.792C133.8 23.792 132.936 23.744 132.936 22.928C132.936 22.616 133.08 22.376 133.368 21.92C133.608 21.536 134.616 19.664 135.84 16.808H131.904C130.44 16.808 129.912 16.88 129.312 16.976L128.928 16.088C130.392 16.232 132.072 16.232 132.336 16.232H136.08C136.608 15.056 137.688 12.536 137.688 11.504C137.688 11.312 137.664 11.192 137.64 11.096L140.328 12.272C140.472 12.344 140.568 12.488 140.568 12.656C140.568 12.896 140.472 12.92 139.68 13.136C139.632 13.256 138.48 15.896 138.312 16.232H147.12L148.152 14.888C148.272 14.744 148.368 14.576 148.512 14.576C148.632 14.576 148.752 14.696 148.968 14.84L150.84 16.184C150.96 16.28 151.104 16.4 151.104 16.568ZM143.16 16.808H138.072C137.472 18.152 136.536 20.288 135.96 21.632C138.288 21.728 139.728 22.016 140.544 22.208C141.336 21.272 142.608 19.568 143.16 16.808ZM171.96 12.176C171.96 12.464 171.816 12.584 171.408 12.872C171 13.184 170.904 13.304 170.808 13.76C170.472 15.128 170.376 15.68 169.56 20.648C169.992 20.768 170.712 21.152 170.712 21.776C170.712 22.496 169.872 22.496 169.056 22.496C168.576 22.496 166.44 22.424 165.984 22.424C163.296 22.424 161.304 22.832 159.96 23.216C159.744 23.288 158.832 23.6 158.64 23.6C157.992 23.6 156.456 21.8 156.456 20.576C156.456 20.24 156.504 20.072 156.6 19.808C156.84 20.048 158.256 21.416 159.696 21.416C160.704 21.416 165.84 20.888 167.904 20.672C168.48 17.12 168.864 12.872 168.864 12.608C168.864 12.344 168.696 12.296 168.456 12.296C166.152 12.296 162.792 12.848 160.128 13.4C159.936 13.448 159.12 13.784 158.928 13.784C157.944 13.784 157.008 12.128 156.912 11.96C156.6 11.432 156.528 11.312 156.528 10.664C156.528 10.376 156.576 10.208 156.6 9.992C157.536 11.288 158.952 11.648 159.912 11.648C160.896 11.648 167.952 11.12 168.552 10.832C168.744 10.736 169.632 10.136 169.824 10.136C170.16 10.136 171.96 11.696 171.96 12.176ZM197.376 17.096C197.376 17.504 196.92 17.984 195.768 17.984C195.384 17.984 194.784 17.96 194.304 17.912C193.848 17.888 187.992 17.84 187.584 17.84C186.192 17.84 182.52 17.912 181.416 18.224C180.984 18.344 180.792 18.392 180.6 18.392C179.712 18.392 178.368 16.496 178.368 15.536C178.368 15.224 178.464 14.816 178.752 14.192C179.592 15.872 180.168 16.16 183.024 16.16C184.416 16.16 192.744 16.136 193.56 15.848C193.92 15.728 194.208 15.608 194.52 15.608C194.568 15.608 197.376 15.824 197.376 17.096ZM222 9.296C222 10.568 220.944 11.552 219.696 11.552C218.472 11.552 217.44 10.568 217.44 9.296C217.44 8.096 218.376 7.04 219.648 7.016C220.896 7.016 222 8 222 9.296ZM221.04 9.344C221.04 8.624 220.464 8 219.72 8C219 8 218.424 8.6 218.424 9.32C218.424 10.016 219 10.592 219.696 10.592C220.392 10.592 221.04 10.088 221.04 9.344ZM220.632 21.272C220.632 22.04 220.104 22.64 219.672 22.64C219.192 22.64 219.048 22.424 217.776 20.432C216.096 17.816 214.968 16.928 214.32 16.4C215.952 16.544 217.344 17.504 218.664 18.464C219.288 18.92 220.632 19.904 220.632 21.272ZM220.68 14.096C220.68 14.72 220.344 14.72 220.128 14.72C219.816 14.72 218.352 14.504 218.064 14.48C217.68 14.432 216.144 14.336 214.56 14.336C213.648 14.336 213.048 14.384 212.664 14.408C212.616 15.272 212.616 19.832 212.736 21.272C212.76 21.512 212.904 23.288 212.904 23.336C212.904 23.648 212.904 24.44 212.544 25.472C212.328 26.12 212.064 26.456 211.56 26.456C211.104 26.456 211.032 26.336 210.432 25.136C209.904 24.104 209.592 23.864 207.984 22.664V22.52C208.416 22.616 209.448 22.832 210.216 22.832C210.84 22.832 210.864 22.736 210.912 22.64C210.96 22.496 211.08 21.128 211.08 18.488C211.08 17.312 211.08 16.352 211.032 14.552C210.096 14.672 206.712 15.176 206.064 15.608C205.68 15.872 205.416 15.896 205.296 15.896C204.24 15.896 202.992 14.096 202.992 13.04C202.992 12.728 203.064 12.368 203.16 11.936C203.376 12.272 204.336 13.736 205.632 13.736C205.992 13.736 210.144 13.328 211.008 13.256C210.912 10.232 210.912 9.728 210.624 9.224C210.312 8.672 209.904 8.528 208.68 8.096C209.016 7.808 209.472 7.424 210.312 7.424C211.512 7.424 213.288 8.408 213.288 9.104C213.288 9.272 213.192 9.536 213 10.016C212.808 10.496 212.712 12.488 212.712 13.112C213.288 13.064 215.832 12.872 216.336 12.824C216.6 12.8 216.936 12.776 217.536 12.56C217.824 12.464 218.016 12.392 218.28 12.392C218.952 12.392 220.68 13.064 220.68 14.096ZM207.72 16.328C207.48 19.376 205.728 23.24 203.736 23.24C203.376 23.24 202.704 22.928 202.704 22.16C202.704 21.2 203.544 20.648 204.24 20.168C205.704 19.208 206.808 17.816 207.72 16.328ZM245.4 13.832C243.072 17.528 240.984 20.408 234.192 24.08C233.328 24.536 233.16 24.704 232.776 25.088C232.56 25.304 232.464 25.304 232.392 25.304C231.792 25.304 230.496 22.904 230.496 22.76C230.496 22.616 230.76 22.112 230.808 22.016C231 21.488 231.048 20.72 231.072 20.432C231.12 19.664 231.12 16.712 231.12 15.8C231.12 15.08 231.096 10.4 230.928 9.944C230.832 9.728 230.664 9.584 230.208 9.392C230.064 9.344 229.152 9.008 228.912 8.936C229.752 8.48 230.16 8.264 230.688 8.264C231.48 8.264 233.664 9.128 233.664 9.704C233.664 9.92 233.304 10.88 233.256 11.072C232.992 12.272 232.8 18.656 232.8 20.336C232.8 21.152 232.824 21.68 232.848 22.208C237.672 20.408 243.168 15.68 245.232 13.664L245.4 13.832ZM269.376 17.096C269.376 17.504 268.92 17.984 267.768 17.984C267.384 17.984 266.784 17.96 266.304 17.912C265.848 17.888 259.992 17.84 259.584 17.84C258.192 17.84 254.52 17.912 253.416 18.224C252.984 18.344 252.792 18.392 252.6 18.392C251.712 18.392 250.368 16.496 250.368 15.536C250.368 15.224 250.464 14.816 250.752 14.192C251.592 15.872 252.168 16.16 255.024 16.16C256.416 16.16 264.744 16.136 265.56 15.848C265.92 15.728 266.208 15.608 266.52 15.608C266.568 15.608 269.376 15.824 269.376 17.096ZM284.52 10.472C284.52 10.64 284.472 11.504 283.68 11.504C283.32 11.504 283.176 11.384 281.784 10.208C280.176 8.864 279.384 8.384 278.232 8.048C278.784 7.976 279.264 7.904 279.912 7.904C283.008 7.904 284.52 9.368 284.52 10.472ZM293.208 12.008C291.984 15.56 288.336 19.76 285.168 22.28C284.28 22.976 283.152 23.816 282.144 24.584C282 24.68 281.496 25.232 281.4 25.352C281.208 25.544 281.016 25.64 280.8 25.64C280.32 25.64 278.4 24.248 278.4 22.304C278.4 22.04 278.424 21.944 278.496 21.728C278.784 22.04 280.008 22.976 280.392 22.976C282.288 22.976 290.352 15.632 293.064 11.936L293.208 12.008ZM282.72 15.896C282.72 16.04 282.696 16.976 281.856 16.976C281.544 16.976 281.448 16.928 280.584 16.304C278.448 14.768 277.536 14.312 275.976 13.808C276.816 13.688 277.488 13.616 278.544 13.616C281.568 13.616 282.72 14.912 282.72 15.896ZM311.136 19.28C309.288 19.28 305.928 19.664 305.064 19.856C304.896 19.904 304.248 20.24 304.08 20.24C303.768 20.24 302.568 19.28 302.568 18.104C302.568 17.888 302.616 17.72 302.664 17.456C303.072 18.056 303.576 18.56 304.32 18.56C304.896 18.56 306.816 18.392 307.536 18.32C309.216 18.176 309.264 18.152 311.208 18.056C311.304 16.376 311.304 16.232 311.352 14.744C310.32 14.816 305.592 15.272 304.896 15.44C304.728 15.488 303.984 15.728 303.816 15.728C303.264 15.728 302.496 14.432 302.496 13.784C302.496 13.472 302.568 13.112 302.664 12.848C303.36 14.048 303.744 14.048 304.896 14.048C305.832 14.048 310.56 13.904 311.208 13.4C311.28 13.352 311.616 13.064 311.688 12.992C311.784 12.92 311.856 12.848 311.976 12.848C312.216 12.848 313.824 14.24 313.824 14.552C313.824 14.744 313.752 14.768 313.2 15.152C312.96 15.32 312.96 15.392 312.912 15.992C312.84 17.264 312.624 22.976 312.408 24.128C312.264 24.92 311.904 25.352 311.472 25.352C310.872 25.352 310.704 24.728 310.512 24.032C308.64 24.152 305.736 24.536 305.088 24.728C304.896 24.776 304.128 25.184 303.96 25.184C303.456 25.184 302.376 23.72 302.376 22.904C302.376 22.64 302.424 22.448 302.544 22.16C302.76 22.52 303.24 23.36 304.32 23.36C304.536 23.36 310.368 22.928 310.872 22.88C311.04 20.96 311.04 20.744 311.136 19.28ZM331.368 12.08C331.368 12.824 330.816 13.232 330.432 13.232C330.024 13.232 329.712 12.896 328.896 12.08C326.928 10.088 325.752 9.56 324.888 9.152C325.32 9.104 325.608 9.08 326.064 9.08C326.88 9.08 331.368 9.416 331.368 12.08ZM340.92 11.096C340.536 12.632 338.136 16.904 332.592 21.224C331.704 21.92 330.264 22.952 329.448 23.696C329.304 23.816 328.752 24.464 328.608 24.536C328.488 24.608 328.368 24.632 328.272 24.632C327.408 24.632 325.704 22.448 325.704 21.272C325.704 20.864 325.8 20.456 325.872 20.144C326.64 21.44 327.36 21.776 327.768 21.776C328.44 21.776 332.448 18.848 333.312 18.176C337.224 15.128 339.528 12.536 340.824 11.048L340.92 11.096Z" fill="white"/>
</svg>
